<svg style="width: 200px" id="Camada_1" data-name="Camada 1" xmlns="http://www.w3.org/2000/svg" viewBox="0 0 103.38 26.47">
  <defs>
    <style>
      <!--/*-->/* &gt;&lt;!--*/
      .cls-1{fill:#fff;}
      /*--&gt;&lt;!*/
    </style>
  </defs>
  <polygon
    class="cls-1"
    points="77 7.53 75.3 10.68 72.78 15.34 75.3 15.34 77.81 15.34 77.08 7.53 77 7.53"
  ></polygon>
  <path
    class="cls-1"
    d="M0,0V3.86H5.55v.69H0V8.3H5.55V9H0v3.87H5.55v.7H0V17.5H5.55v.69H0V22H5.55v.69H0v3.82H103.38V0ZM25.2,9.38H20a1.65,1.65,0,0,0-.32-1.67,2.49,2.49,0,0,0-1.88-.6,2.66,2.66,0,0,0-2.6,1.72c-.29,1.38,1.28,1.82,2.58,2.19,3,.81,7.5,1.12,6.42,6.19-.84,4-5.15,5.84-9.5,5.84s-8-1.28-6.95-6.38H13c-.4,1.77.69,2.73,2.57,2.73,1.2,0,2.87-.62,3.13-1.87.54-2.55-3.43-2-7.13-3.8-1.73-.84-2.3-2.56-1.87-4.59C10.81,4.69,15,3.47,18.91,3.47S26.48,4.85,25.2,9.38Zm16,5.65H32.78l-.85,4H41l-.77,3.65H26l4-18.8H44.27l-.53,2.47L43.49,7.5H34.37l-.82,3.88h8.39Zm13.17,7.63L51,8.26h0L47.9,22.66H43.21l.53-2.48L47.21,3.86H54.5l3.33,14,.06-.06,3-13.95h4.69l-1,4.87-3,13.93Zm24.45,0L78.32,19H70.69l-2,3.67H63.47l1-1.71L74.89,3.86h6.36l3.42,18.8Zm13.08,0H86.65l4-18.8h5.2Zm11.52,0H97.83V22h5.55Zm0-4.46H97.83V17.5h5.55Zm0-4.62H97.83v-.7h5.55Zm0-4.57H97.83V8.3h5.55Zm0-4.45H97.83V3.86h5.55Z"
  ></path>
</svg>